<svg id="baby-car-seat_4_" data-name="baby-car-seat (4)" xmlns="http://www.w3.org/2000/svg" width="48.26" height="48.261" viewBox="0 0 48.26 48.261">
  <g id="Group_94" data-name="Group 94" transform="translate(0.707 0.707)">
    <path id="Path_200" data-name="Path 200" d="M115.442,71.128V96.751H82.79V71.128a34.389,34.389,0,0,1,9.043-3.367A31.874,31.874,0,0,1,115.442,71.128Z" transform="translate(-75.692 -61.261)" fill="#a4e7ff"/>
    <path id="Path_201" data-name="Path 201" d="M97.3,105.441H82.79V79.818a34.389,34.389,0,0,1,9.043-3.367C91.5,83.584,92.061,94.93,97.3,105.441Z" transform="translate(-75.692 -69.951)" fill="#83deff"/>
    <path id="Path_202" data-name="Path 202" d="M183.915,125.244l-5.063,2.246-.127.057-.453-1.022-.666-1.5a0,0,0,0,1,0,0l-1.866-4.2c-2.231-6.6-2.024-14.078-1.715-17.874l.2.44Z" transform="translate(-158.155 -93.944)" fill="#ddddfa"/>
    <path id="Path_203" data-name="Path 203" d="M119.431,101.875l-.127.057L108.23,76.963l5.191-2.3,1.378,3.106A59.583,59.583,0,0,0,119.431,101.875Z" transform="translate(-98.734 -68.33)" fill="#d1d1ff"/>
    <rect id="Rectangle_328" data-name="Rectangle 328" width="5.678" height="27.314" transform="matrix(-0.914, -0.405, 0.405, -0.914, 26.277, 33.603)" fill="#eeecff"/>
    <path id="Path_204" data-name="Path 204" d="M174.8,19.978v6.389H151.153c-6.6-5.31.446-10.411.446-10.411A27.921,27.921,0,0,1,174.8,19.978Z" transform="translate(-135.054 -14.3)" fill="#b2ade7"/>
    <path id="Path_205" data-name="Path 205" d="M91.791,35.472h-9V29.084a31.947,31.947,0,0,1,9.447-4.023A68.662,68.662,0,0,0,91.791,35.472Z" transform="translate(-75.692 -23.406)" fill="#a29be2"/>
    <path id="Path_206" data-name="Path 206" d="M379.852,11.943a33.453,33.453,0,0,0-2.494,20.985,3.087,3.087,0,0,1-3.031,3.674h-.786a3.087,3.087,0,0,1-3.006-2.384c-1.09-4.663-2.523-15.4,3.967-25.332A3.077,3.077,0,0,1,377.079,7.5h0A3.085,3.085,0,0,1,379.852,11.943Z" transform="translate(-335.456 -7.5)" fill="#a29be2"/>
    <path id="Path_207" data-name="Path 207" d="M30.409,11.943A33.453,33.453,0,0,1,32.9,32.928,3.087,3.087,0,0,0,35.934,36.6h.786a3.087,3.087,0,0,0,3.006-2.384c1.09-4.663,2.524-15.4-3.967-25.332A3.077,3.077,0,0,0,33.183,7.5h0A3.085,3.085,0,0,0,30.409,11.943Z" transform="translate(-27.958 -7.5)" fill="#928bde"/>
    <path id="Path_208" data-name="Path 208" d="M181.73,216.763l-3.848,6.846a17.543,17.543,0,0,0-1.472,7.034v2.178a5.657,5.657,0,0,1-5.656,5.656H154.2c-11.623-8.433-1.745-16.326-1.745-16.326h14.92a2.829,2.829,0,0,0,2.591-1.693l3.963-7.112a4.259,4.259,0,0,1,7.8,3.416Z" transform="translate(-135.241 -191.631)" fill="#b2ade7"/>
    <path id="Path_209" data-name="Path 209" d="M26.456,238.478H18.834a5.656,5.656,0,0,1-5.656-5.656v-2.178a17.543,17.543,0,0,0-1.472-7.034l-3.848-6.846a4.259,4.259,0,0,1,7.8-3.416l3.963,7.112a2.829,2.829,0,0,0,2.591,1.693h2.5C23.928,225.2,22.636,232.589,26.456,238.478Z" transform="translate(-7.5 -191.631)" fill="#a29be2"/>
    <path id="Path_210" data-name="Path 210" d="M228.691,350.023h0a2.839,2.839,0,0,1-2.839-2.839v-8.531h5.678v8.531A2.839,2.839,0,0,1,228.691,350.023Z" transform="translate(-205.268 -307.435)" fill="#eeecff"/>
    <circle id="Ellipse_67" data-name="Ellipse 67" cx="3.549" cy="3.549" r="3.549" transform="translate(19.874 26.973)" fill="#ffbbc5"/>
    <ellipse id="Ellipse_68" data-name="Ellipse 68" cx="2.726" cy="2.171" rx="2.726" ry="2.171" transform="translate(13.131 5.595)" fill="#fff"/>
    <ellipse id="Ellipse_69" data-name="Ellipse 69" cx="2.726" cy="2.171" rx="2.726" ry="2.171" transform="translate(27.908 5.595)" fill="#fff"/>
    <path id="Path_211" data-name="Path 211" d="M191.823,430.571a1.419,1.419,0,0,1-1.42,1.419H176.227c-2.485-.98-.554-2.839-.554-2.839H190.4A1.419,1.419,0,0,1,191.823,430.571Z" transform="translate(-159.172 -389.402)" fill="#ddddfa"/>
    <path id="Path_212" data-name="Path 212" d="M160.949,431.989h-1.44a1.419,1.419,0,1,1,0-2.839h.885A18.62,18.62,0,0,0,160.949,431.989Z" transform="translate(-143.894 -389.402)" fill="#d1d1ff"/>
  </g>
  <g id="Group_95" data-name="Group 95" transform="translate(0 0)">
    <path id="Path_213" data-name="Path 213" d="M189.023,142.956l-6.194-13.964a.707.707,0,0,1,1.293-.573l6.194,13.963Z" transform="translate(-165.538 -115.932)"/>
    <path id="Line_7" data-name="Line 7" d="M-.187,8.809a.707.707,0,0,1-.647-.421l-6.607-14.9a.707.707,0,0,1,.36-.933.707.707,0,0,1,.933.36L.459,7.815a.707.707,0,0,1-.36.933A.7.7,0,0,1-.187,8.809Z" transform="translate(20.098 23.126)"/>
    <path id="Line_8" data-name="Line 8" d="M-6.8,8.809a.7.7,0,0,1-.286-.061.707.707,0,0,1-.36-.933l6.607-14.9A.707.707,0,0,1,.1-7.441a.707.707,0,0,1,.36.933l-6.607,14.9A.707.707,0,0,1-6.8,8.809Z" transform="translate(35.145 23.126)"/>
    <path id="Path_214" data-name="Path 214" d="M249.175,143.376a.707.707,0,0,1-.646-.994l6.194-13.963a.707.707,0,0,1,1.293.573l-6.194,13.963A.707.707,0,0,1,249.175,143.376Z" transform="translate(-225.045 -115.932)"/>
    <path id="Line_9" data-name="Line 9" d="M15.838-6.086H-6.793A.707.707,0,0,1-7.5-6.793.707.707,0,0,1-6.793-7.5H15.838a.707.707,0,0,1,.707.707A.707.707,0,0,1,15.838-6.086Z" transform="translate(19.608 19.567)"/>
    <path id="Path_215" data-name="Path 215" d="M242.5,12.442a.7.7,0,0,1-.344-.09,26.623,26.623,0,0,0-15.721-3.309.707.707,0,0,1-.132-1.408,28.013,28.013,0,0,1,16.542,3.482.707.707,0,0,1-.345,1.325Z" transform="translate(-204.386 -6.797)"/>
    <path id="Path_216" data-name="Path 216" d="M101.286,17.622a.707.707,0,0,1-.322-1.337,34.678,34.678,0,0,1,9.138-3.134.707.707,0,0,1,.263,1.389,33.244,33.244,0,0,0-8.76,3A.7.7,0,0,1,101.286,17.622Z" transform="translate(-91.097 -11.9)"/>
    <path id="Path_217" data-name="Path 217" d="M364.231,28.989a.707.707,0,0,1-.612-.351,3.8,3.8,0,0,1-.419-1.052c-1.018-4.354-2.661-15.592,4.064-25.88a3.793,3.793,0,0,1,6.575,3.758,30.8,30.8,0,0,0-3.078,14.608.707.707,0,0,1-1.414.036,32.2,32.2,0,0,1,3.225-15.272,2.332,2.332,0,0,0,.248-1.044,2.388,2.388,0,0,0-2.388-2.378,2.36,2.36,0,0,0-1.985,1.066c-6.426,9.83-4.847,20.607-3.87,24.785a2.391,2.391,0,0,0,.264.662.707.707,0,0,1-.61,1.063Z" transform="translate(-328.103 0)"/>
    <path id="Path_218" data-name="Path 218" d="M32.593,28.989a.707.707,0,0,1-.61-1.063,2.391,2.391,0,0,0,.264-.661c.977-4.178,2.556-14.955-3.87-24.785a2.36,2.36,0,0,0-1.985-1.066A2.388,2.388,0,0,0,24,3.793a2.331,2.331,0,0,0,.248,1.043,32.2,32.2,0,0,1,3.225,15.272.707.707,0,0,1-1.414-.036A30.8,30.8,0,0,0,22.985,5.464a3.733,3.733,0,0,1-.395-1.671,3.8,3.8,0,0,1,6.97-2.087c6.725,10.288,5.082,21.526,4.064,25.88a3.8,3.8,0,0,1-.419,1.052A.707.707,0,0,1,32.593,28.989Z" transform="translate(-20.46 0)"/>
    <path id="Path_219" data-name="Path 219" d="M26.97,232.375H12.041a6.37,6.37,0,0,1-6.363-6.363v-2.178a16.735,16.735,0,0,0-1.412-6.751L.449,210.3a4.964,4.964,0,1,1,9.067-4.046l3.933,7.051a2.155,2.155,0,0,0,1.974,1.33h5.158a.707.707,0,0,1,0,1.414H15.423a3.536,3.536,0,0,1-3.239-2.116L8.25,206.882a3.585,3.585,0,0,0-1.99-1.944,3.551,3.551,0,0,0-4.548,4.733l3.817,6.783a18.166,18.166,0,0,1,1.562,7.381v2.178a4.955,4.955,0,0,0,4.949,4.949H26.97a.707.707,0,0,1,0,1.414Z" transform="translate(0 -184.114)"/>
    <path id="Path_220" data-name="Path 220" d="M295.367,232.375h-6.4a.707.707,0,0,1,0-1.414h6.4a4.955,4.955,0,0,0,4.949-4.949v-2.178a18.141,18.141,0,0,1,1.531-7.318l3.879-6.909a3.554,3.554,0,0,0-6.539-2.786l-3.993,7.172a3.505,3.505,0,0,1-3.209,2.056h-5.158a.707.707,0,1,1,0-1.414h5.158a2.122,2.122,0,0,0,1.944-1.27l3.993-7.172a4.877,4.877,0,0,1,2.71-2.572,4.966,4.966,0,0,1,6.358,6.616l-3.88,6.909a16.716,16.716,0,0,0-1.381,6.688v2.178A6.37,6.37,0,0,1,295.367,232.375Z" transform="translate(-259.147 -184.114)"/>
    <path id="Line_10" data-name="Line 10" d="M-6.793,1.012A.707.707,0,0,1-7.5.3v-7.1A.707.707,0,0,1-6.793-7.5a.707.707,0,0,1,.707.707V.3A.707.707,0,0,1-6.793,1.012Z" transform="translate(33.763 40.152)"/>
    <path id="Line_11" data-name="Line 11" d="M-6.793,1.012A.707.707,0,0,1-7.5.3v-7.1A.707.707,0,0,1-6.793-7.5a.707.707,0,0,1,.707.707V.3A.707.707,0,0,1-6.793,1.012Z" transform="translate(28.084 40.152)"/>
    <path id="Ellipse_70" data-name="Ellipse 70" d="M-3.244-7.5A4.261,4.261,0,0,1,1.012-3.244,4.261,4.261,0,0,1-3.244,1.012,4.261,4.261,0,0,1-7.5-3.244,4.261,4.261,0,0,1-3.244-7.5Zm0,7.1A2.845,2.845,0,0,0-.4-3.244,2.845,2.845,0,0,0-3.244-6.086,2.845,2.845,0,0,0-6.086-3.244,2.845,2.845,0,0,0-3.244-.4Z" transform="translate(27.374 34.472)"/>
    <path id="Path_221" data-name="Path 221" d="M174.6,46.268a.707.707,0,0,1-.707-.707.591.591,0,1,0-1.181,0,.707.707,0,1,1-1.414,0,2,2,0,1,1,4.009,0A.707.707,0,0,1,174.6,46.268Z" transform="translate(-155.15 -39.45)"/>
    <path id="Path_222" data-name="Path 222" d="M297.645,46.268a.707.707,0,0,1-.707-.707.591.591,0,0,0-1.181,0,.707.707,0,1,1-1.414,0,2,2,0,1,1,4.009,0A.707.707,0,0,1,297.645,46.268Z" transform="translate(-266.595 -39.45)"/>
    <path id="Path_223" data-name="Path 223" d="M234.067,75.45a2.532,2.532,0,0,1-1.909-.87.707.707,0,1,1,1.066-.929,1.117,1.117,0,0,0,1.687,0,.707.707,0,0,1,1.066.929A2.533,2.533,0,0,1,234.067,75.45Z" transform="translate(-210.115 -66.489)"/>
    <path id="Path_224" data-name="Path 224" d="M168.329,425.9H152.714a2.127,2.127,0,1,1,0-4.253h15.616a2.127,2.127,0,0,1,0,4.253Zm-15.616-2.839a.713.713,0,1,0,0,1.425h15.616a.713.713,0,0,0,0-1.425Z" transform="translate(-136.391 -381.898)"/>
  </g>
</svg>
