<svg xmlns="http://www.w3.org/2000/svg" width="34.274" height="49.24" viewBox="0 0 34.274 49.24">
  <g id="baby-car-seat_3_" data-name="baby-car-seat (3)" transform="translate(-77.889)">
    <g id="Group_88" data-name="Group 88" transform="translate(78.612 0.721)">
      <path id="Path_169" data-name="Path 169" d="M114.07,87.4H89.664L86.226,80.52a7.67,7.67,0,0,1-.751-4.382L90.05,56.924a2.768,2.768,0,0,1,2.669-2.356h18.064a2.848,2.848,0,0,1,2.705,2.388l4.7,19.376a7.671,7.671,0,0,1-.6,4.056Z" transform="translate(-85.416 -50.046)" fill="#8ac9fe"/>
      <path id="Path_170" data-name="Path 170" d="M151.291,129.549H137.578L133.1,120.5a4.894,4.894,0,0,1-.479-2.8l1.871-14.4a2.5,2.5,0,0,1,2.466-2.1h14.993a2.4,2.4,0,0,1,2.369,2.005l1.99,14.619a4.894,4.894,0,0,1-.381,2.588Z" transform="translate(-128.051 -92.199)" fill="#eaf6ff"/>
      <path id="Path_171" data-name="Path 171" d="M89.986,75.549l1.871-14.4a2.5,2.5,0,0,1,2.466-2.1h.025l.506-2.124a2.768,2.768,0,0,1,2.669-2.356h-4.8a2.768,2.768,0,0,0-2.669,2.356L85.476,76.138a7.67,7.67,0,0,0,.751,4.382L89.664,87.4h4.8L91.03,80.52a7.671,7.671,0,0,1-.769-2.642A4.894,4.894,0,0,1,89.986,75.549Z" transform="translate(-85.416 -50.046)" fill="#60b7ff"/>
      <path id="Path_172" data-name="Path 172" d="M132.915,118.291l4.069-17.09h-.025a2.5,2.5,0,0,0-2.466,2.1l-1.871,14.4a4.894,4.894,0,0,0,.275,2.329A7.663,7.663,0,0,1,132.915,118.291Z" transform="translate(-128.052 -92.199)" fill="#d8ecfe"/>
      <path id="Path_173" data-name="Path 173" d="M138.3,442.063H121.95A3.414,3.414,0,0,1,118.7,440l-1.985-4.625h26.814L141.546,440A3.525,3.525,0,0,1,138.3,442.063Z" transform="translate(-113.71 -394.263)" fill="#8ac9fe"/>
      <path id="Path_174" data-name="Path 174" d="M123.505,440l-1.985-4.625h-4.8L118.7,440a3.414,3.414,0,0,0,3.248,2.066h4.8A3.414,3.414,0,0,1,123.505,440Z" transform="translate(-113.71 -394.263)" fill="#60b7ff"/>
      <path id="Path_175" data-name="Path 175" d="M206.071,13.518H194.134V10.591A3.091,3.091,0,0,1,197.225,7.5h5.756a3.091,3.091,0,0,1,3.091,3.091v2.927Z" transform="translate(-183.689 -7.5)" fill="#7880b5"/>
      <path id="Path_176" data-name="Path 176" d="M202.029,7.5h-4.8a3.091,3.091,0,0,0-3.091,3.091v2.927h4.8V10.591A3.091,3.091,0,0,1,202.029,7.5Z" transform="translate(-183.689 -7.5)" fill="#67739e"/>
      <path id="Path_177" data-name="Path 177" d="M209.665,70.139h8.953v2.984h-8.953Z" transform="translate(-197.728 -64.121)" fill="#ffe07d"/>
      <path id="Path_178" data-name="Path 178" d="M209.665,70.139h4.8v2.984h-4.8Z" transform="translate(-197.728 -64.121)" fill="#ffd064"/>
      <path id="Path_179" data-name="Path 179" d="M185.342,117.709l-2.482,2.5L178.508,101.2h3Z" transform="translate(-169.564 -92.199)" fill="#7880b5"/>
      <path id="Path_180" data-name="Path 180" d="M261.739,117.709l2.482,2.5,4.471-19.011h-3Z" transform="translate(-244.799 -92.199)" fill="#7880b5"/>
      <path id="Path_181" data-name="Path 181" d="M165.187,340.591H143.952v-2.82a3.643,3.643,0,0,1,3.643-3.643h13.95a3.643,3.643,0,0,1,3.643,3.643v2.82Z" transform="translate(-138.328 -302.747)" fill="#c4e2ff"/>
      <path id="Path_182" data-name="Path 182" d="M152.4,334.129h-4.8a3.643,3.643,0,0,0-3.643,3.643v2.82h4.8v-2.82A3.643,3.643,0,0,1,152.4,334.129Z" transform="translate(-138.327 -302.748)" fill="#aedafc"/>
      <path id="Path_183" data-name="Path 183" d="M115.871,345.994l-1.708,3.409H96.244l-1.709-3.41a2.843,2.843,0,1,0-5.084,2.548l2.091,4.171a4.818,4.818,0,0,0,4.307,2.659H114.56a4.818,4.818,0,0,0,4.307-2.659l2.09-4.17a2.845,2.845,0,1,0-5.086-2.549Z" transform="translate(-88.79 -312.052)" fill="#7880b5"/>
      <g id="Group_87" data-name="Group 87" transform="translate(0.359 32.37)">
        <g id="Group_86" data-name="Group 86">
          <path id="Path_184" data-name="Path 184" d="M354.1,345.994a2.831,2.831,0,0,1,1.1-1.179q-.073-.043-.15-.082a2.845,2.845,0,0,0-3.834,1.261L349.51,349.4h2.882Z" transform="translate(-324.495 -344.422)" fill="#67739e"/>
          <path id="Path_185" data-name="Path 185" d="M94.423,352.712l-2.091-4.171a2.844,2.844,0,0,1,1.1-3.725,2.844,2.844,0,0,0-3.983,3.726l2.091,4.171a4.818,4.818,0,0,0,4.307,2.659H98.73A4.819,4.819,0,0,1,94.423,352.712Z" transform="translate(-89.148 -344.423)" fill="#67739e"/>
        </g>
      </g>
      <path id="Path_186" data-name="Path 186" d="M240.727,299.346h2.984v6.326h-2.984Z" transform="translate(-225.805 -271.306)" fill="#7880b5"/>
      <path id="Path_187" data-name="Path 187" d="M201.345,246.91H198.86a4.726,4.726,0,0,1-4.726-4.726,1.243,1.243,0,0,1,1.243-1.243h9.452a1.243,1.243,0,0,1,1.243,1.243A4.726,4.726,0,0,1,201.345,246.91Z" transform="translate(-183.689 -218.513)" fill="#ffe07d"/>
      <path id="Path_188" data-name="Path 188" d="M198.938,242.184a1.243,1.243,0,0,1,1.243-1.243h-4.8a1.243,1.243,0,0,0-1.243,1.243,4.726,4.726,0,0,0,4.726,4.726h2.485a4.732,4.732,0,0,0,1.159-.143A4.728,4.728,0,0,1,198.938,242.184Z" transform="translate(-183.689 -218.513)" fill="#ffd064"/>
    </g>
    <g id="Group_89" data-name="Group 89" transform="translate(77.889 0)">
      <path id="Path_189" data-name="Path 189" d="M110.518,33.2c.294-.795,2-2.893,1.578-6.28a.725.725,0,0,0-.015-.081l-4.7-19.383a3.535,3.535,0,0,0-3.4-2.931h-2.264V3.812A3.816,3.816,0,0,0,97.9,0H92.148a3.816,3.816,0,0,0-3.811,3.812v.711H85.915a3.468,3.468,0,0,0-3.37,2.909l-2.2,9.237a.721.721,0,1,0,1.4.334l2.2-9.246a2.055,2.055,0,0,1,1.966-1.793h2.422v.775a.72.72,0,0,0,.721.721h.771V9H87.519a3.2,3.2,0,0,0-3.178,2.709l0,.021-1.872,14.4a5.586,5.586,0,0,0,.548,3.2l1.691,3.417a4.379,4.379,0,0,0-.458.572,3.575,3.575,0,0,0-3.369-.833c-.416-1.055-1.833-2.735-1.5-5.554l1.638-6.882a.721.721,0,1,0-1.4-.334c-1.752,7.367-1.652,6.924-1.662,7-.418,3.355,1.241,5.4,1.637,6.423a3.551,3.551,0,0,0-1.343,2.791c0,1.381.624,1.867,2.47,5.766q.121.241.262.465l1.961,4.57.013.028a4.144,4.144,0,0,0,3.9,2.474H103.2a4.236,4.236,0,0,0,3.909-2.5,84.666,84.666,0,0,1,4.313-9.2,3.576,3.576,0,0,0-.9-4.336ZM103.979,5.964a2.128,2.128,0,0,1,2,1.837l4.687,19.335c.335,2.828-1.095,4.513-1.423,5.381a3.57,3.57,0,0,0-3.656,1.026,4.389,4.389,0,0,0-.365-.525c2.036-4.011,1.909-3.758,1.923-3.79a5.624,5.624,0,0,0,.435-2.977l-.728-5.35a.721.721,0,1,0-1.428.194l.727,5.342a4.176,4.176,0,0,1-.317,2.191l-1.729,3.406a4.335,4.335,0,0,0-2.281-.652h-4.59v-1.63a5.456,5.456,0,0,0,4.477-5.36,1.967,1.967,0,0,0-1.473-1.9l2.813-11.958a1.674,1.674,0,0,1,1.113,1.3L105,17.983a.721.721,0,1,0,1.428-.194l-.838-6.158c0-.007,0-.014,0-.022A3.112,3.112,0,0,0,102.512,9h-2.289V7.459h.771a.72.72,0,0,0,.721-.721V5.964h2.264ZM90.3,23.87h9.452a.523.523,0,0,1,.522.522A4.01,4.01,0,0,1,96.269,28.4H93.783a4.01,4.01,0,0,1-4.005-4.006A.522.522,0,0,1,90.3,23.87Zm8.477-1.441H97.2l2.867-11.985H101.6Zm-.188-11.985L95.722,22.428H94.247L91.465,10.444ZM94.254,34.366V29.838H95.8v4.528ZM89.778,3.812a2.373,2.373,0,0,1,2.37-2.37H97.9a2.373,2.373,0,0,1,2.37,2.37c0,.814,0,1.5,0,2.207h-10.5C89.778,5.05,89.778,5.523,89.778,3.812Zm9,3.648V9H91.27V7.459Zm-8.8,2.984,2.781,11.985H91.2L88.46,10.444ZM83.9,26.317l1.87-14.388A1.768,1.768,0,0,1,87,10.52l2.744,11.988a1.967,1.967,0,0,0-1.407,1.883,5.456,5.456,0,0,0,4.477,5.36v1.63H87.879a4.34,4.34,0,0,0-2,.491L84.3,28.7A4.149,4.149,0,0,1,83.9,26.317Zm21.895,19.839A2.788,2.788,0,0,1,103.2,47.8H86.852a2.7,2.7,0,0,1-2.591-1.644l-.793-1.847a5.553,5.553,0,0,0,2.2.452h18.711a5.553,5.553,0,0,0,2.2-.452Zm4.343-9.269c-2.645,5.259-1.953,3.937-2.325,4.58a4.072,4.072,0,0,1-3.427,1.851H85.671a4.107,4.107,0,0,1-3.663-2.262c-2-4.144-2.317-4.269-2.317-5.12a2.117,2.117,0,0,1,1.158-1.894h0a2.123,2.123,0,0,1,2.862.94l1.709,3.41a.721.721,0,0,0,.644.4h7.39a.721.721,0,1,0,0-1.441H86.511l-1.347-2.688a2.94,2.94,0,0,1,2.716-1.839h4.934v1.543h-.772a.721.721,0,0,0,0,1.441H98.01a.721.721,0,0,0,0-1.441h-.772V32.823h4.59a2.942,2.942,0,0,1,2.848,2.261L103.54,37.35H96.6a.721.721,0,0,0,0,1.441h7.388a.721.721,0,0,0,.644-.4l1.708-3.409a2.124,2.124,0,1,1,3.8,1.9Z" transform="translate(-77.889 0)"/>
      <path id="Path_190" data-name="Path 190" d="M233.948,265.945h2.984a.721.721,0,0,0,0-1.441h-2.984a.721.721,0,0,0,0,1.441Z" transform="translate(-218.303 -239.091)"/>
    </g>
  </g>
</svg>
