<svg id="gear_3895858" xmlns="http://www.w3.org/2000/svg" width="48" height="48" viewBox="0 0 48 48">
  <g id="Group_117" data-name="Group 117" transform="translate(10.065 0.774)">
    <g id="Group_96" data-name="Group 96" transform="translate(15.484 24.852)">
      <path id="Path_237" data-name="Path 237" d="M43.065,37.668a8.477,8.477,0,0,0-5.419,1.943V38.442L33,40.153V35.345l.441-.186A26.188,26.188,0,0,1,40,33.309a3.078,3.078,0,0,0,6.132.008,9.264,9.264,0,0,0-1.123-.217c3.406,1.022,4.5,1.742,5.4,2.64a9.265,9.265,0,0,1,2.423,4.25H48.91c-.139-.132-.279-.255-.426-.379A8.477,8.477,0,0,0,43.065,37.668Z" transform="translate(-33 -33.1)" fill="#ff826e"/>
    </g>
    <g id="Group_97" data-name="Group 97" transform="translate(13.935)">
      <path id="Path_238" data-name="Path 238" d="M51.129,13.387V8.742a3.1,3.1,0,0,1-3.1,3.1h-4.4a6.725,6.725,0,0,1-4.622-1.827l-.008.008a6.774,6.774,0,0,1-4.622,1.819H34.1v1.548a3.094,3.094,0,0,0-2.477,1.239l-.465-2.106A6.373,6.373,0,0,1,31,11.142,6.292,6.292,0,0,1,31.674,8.3a6.4,6.4,0,0,1,1.866-2.237l.557-.418.1-.3A6.352,6.352,0,0,1,40.221,1H45.9a8.32,8.32,0,0,1,6.945,12.906A3.1,3.1,0,0,0,51.129,13.387Z" transform="translate(-31 -1)" fill="#fcd770"/>
    </g>
    <g id="Group_98" data-name="Group 98" transform="translate(31.394 31.742)">
      <path id="Path_239" data-name="Path 239" d="M57.769,44.323v1.192a3.089,3.089,0,0,0-1.548-.418,1.406,1.406,0,0,0-.542.1A8.655,8.655,0,0,0,53.55,42h3.925A9.18,9.18,0,0,1,57.769,44.323Z" transform="translate(-53.55 -42)" fill="#f0d0b4"/>
    </g>
    <g id="Group_99" data-name="Group 99" transform="translate(8.307 27.097)">
      <path id="Path_240" data-name="Path 240" d="M30.907,40.808l-6.975,2.57.286-.434a2.988,2.988,0,0,0-.488-3.863L30.907,36Z" transform="translate(-23.73 -36)" fill="#f0d0b4"/>
    </g>
    <g id="Group_100" data-name="Group 100" transform="translate(17.032 29.419)">
      <path id="Path_241" data-name="Path 241" d="M48.935,47.516a4.238,4.238,0,0,0-.062-.774,5.4,5.4,0,0,0-3.809-4.421,5.451,5.451,0,0,0-3.1,0,5.4,5.4,0,0,0-3.809,4.421,4.238,4.238,0,0,0-.062.774,5.3,5.3,0,0,0,.526,2.323,5.414,5.414,0,0,0,9.786,0A5.324,5.324,0,0,0,48.935,47.516Zm1.548,1.548a1.548,1.548,0,0,0,1.006,1.448,8.514,8.514,0,1,1-2.555-9.569c.147.124.286.248.426.379a8.655,8.655,0,0,1,2.129,3.2,1.548,1.548,0,0,0-1.006,1.448Z" transform="translate(-35 -39)" fill="#969faa"/>
    </g>
    <g id="Group_101" data-name="Group 101" transform="translate(20.129 32.516)">
      <path id="Path_242" data-name="Path 242" d="M47.516,47.645h2.261a4.238,4.238,0,0,1,.062.774,5.324,5.324,0,0,1-.526,2.323H39.526A5.3,5.3,0,0,1,39,48.419a4.238,4.238,0,0,1,.062-.774h2.261A1.553,1.553,0,0,0,42.871,46.1V43.225a5.452,5.452,0,0,1,3.1,0V46.1A1.553,1.553,0,0,0,47.516,47.645Z" transform="translate(-39 -43)" fill="#ccd1d9"/>
    </g>
    <g id="Group_102" data-name="Group 102" transform="translate(4.645 35.613)">
      <path id="Path_243" data-name="Path 243" d="M19,47h3.1v7.742H19Z" transform="translate(-19 -47)" fill="#ccd1d9"/>
    </g>
    <g id="Group_103" data-name="Group 103" transform="translate(0.774 43.355)">
      <path id="Path_244" data-name="Path 244" d="M24.839,57v3.1H14V57H24.839Z" transform="translate(-14 -57)" fill="#aab2bd"/>
    </g>
    <g id="Group_104" data-name="Group 104" transform="translate(3.863 29.419)">
      <path id="Path_245" data-name="Path 245" d="M23.417,41.973a2.967,2.967,0,0,1-.5,1.649l-.286.434h-.008l-.759,1.138h-3.1l-.116-.178a1.544,1.544,0,0,0,.116-.6v-3.1a1.565,1.565,0,0,0-.782-1.347A2.98,2.98,0,0,1,20.2,39h.248a2.962,2.962,0,0,1,1.982.759h.008a2.988,2.988,0,0,1,.983,2.214Z" transform="translate(-17.99 -39)" fill="#aab2bd"/>
    </g>
    <g id="Group_105" data-name="Group 105" transform="translate(32.516 34.839)">
      <path id="Path_246" data-name="Path 246" d="M56.006,46.1a1.406,1.406,0,0,1,.542-.1,3.089,3.089,0,0,1,1.548.418,3.271,3.271,0,0,1,.643.488,3.1,3.1,0,0,1-2.191,5.288,1.406,1.406,0,0,1-.542-.1A1.548,1.548,0,0,1,55,50.645v-3.1A1.548,1.548,0,0,1,56.006,46.1Z" transform="translate(-55 -46)" fill="#f0d0b4"/>
    </g>
    <g id="Group_106" data-name="Group 106" transform="translate(0 30.194)">
      <path id="Path_247" data-name="Path 247" d="M17.645,41.548v3.1a1.544,1.544,0,0,1-.116.6,1.564,1.564,0,0,1-1.432.952A3.1,3.1,0,1,1,16.1,40a1.51,1.51,0,0,1,.766.2A1.565,1.565,0,0,1,17.645,41.548Z" transform="translate(-13 -40)" fill="#f0d0b4"/>
    </g>
    <g id="Group_107" data-name="Group 107" transform="translate(22.483 24.774)">
      <path id="Path_248" data-name="Path 248" d="M47.049,33.077a9.264,9.264,0,0,1,1.123.217,3.078,3.078,0,0,1-6.132-.008A25.492,25.492,0,0,1,45.88,33l.588.023c.194.008.387.031.581.054Z" transform="translate(-42.04 -33)" fill="#f0d0b4"/>
    </g>
    <g id="Group_108" data-name="Group 108" transform="translate(34.065 12.387)">
      <path id="Path_249" data-name="Path 249" d="M59.191,17.906A3.1,3.1,0,0,1,57,23.194V17a3.1,3.1,0,0,1,1.719.519A3.808,3.808,0,0,1,59.191,17.906Z" transform="translate(-57 -17)" fill="#f0d0b4"/>
    </g>
    <g id="Group_109" data-name="Group 109" transform="translate(17.032 7.742)">
      <path id="Path_250" data-name="Path 250" d="M35.286,14.1a6.774,6.774,0,0,0,4.622-1.819l.008-.008A6.725,6.725,0,0,0,44.538,14.1h4.4a3.1,3.1,0,0,0,3.1-3.1V21.839a6.192,6.192,0,0,1-6.194,6.194H41.194A6.192,6.192,0,0,1,35,21.839V14.1Z" transform="translate(-35 -11)" fill="#f0d0b4"/>
    </g>
    <g id="Group_110" data-name="Group 110" transform="translate(13.935 12.387)">
      <path id="Path_251" data-name="Path 251" d="M34.1,17v6.194A3.1,3.1,0,1,1,34.1,17Z" transform="translate(-31 -17)" fill="#f0d0b4"/>
    </g>
    <g id="Group_111" data-name="Group 111" transform="translate(22.452 18.581)">
      <path id="Path_252" data-name="Path 252" d="M42,25h6.194A3.1,3.1,0,1,1,42,25Z" transform="translate(-42 -25)" fill="#ff826e"/>
    </g>
  </g>
  <g id="Group_118" data-name="Group 118" transform="translate(0)">
    <path id="Path_253" data-name="Path 253" d="M44.194,42a6.194,6.194,0,1,0,6.194,6.194A6.2,6.2,0,0,0,44.194,42Zm4.374,4.645H47.29a.775.775,0,0,1-.774-.774V44.177A4.663,4.663,0,0,1,48.568,46.645Zm-3.6-3.027v2.253a2.325,2.325,0,0,0,2.323,2.323h1.548a4.626,4.626,0,0,1-.271,1.548H39.819a4.626,4.626,0,0,1-.271-1.548H41.1a2.325,2.325,0,0,0,2.323-2.323V43.618a4.336,4.336,0,0,1,1.548,0Zm-3.1.559v1.694a.775.775,0,0,1-.774.774H39.819A4.663,4.663,0,0,1,41.871,44.177Zm2.323,8.662a4.632,4.632,0,0,1-3.453-1.548h6.905A4.629,4.629,0,0,1,44.194,52.839Z" transform="translate(-8.581 -9.484)"/>
    <path id="Path_254" data-name="Path 254" d="M44.868,20.055a3.865,3.865,0,0,0,1.986-6.542A9.093,9.093,0,0,0,38.906,0H33.221a7.113,7.113,0,0,0-6.756,4.87l-.026.076-.364.273A7.125,7.125,0,0,0,23.4,12.462l.4,1.8a3.825,3.825,0,0,0-.571,1.994,3.875,3.875,0,0,0,3.132,3.8,6.978,6.978,0,0,0,3.707,5.47,27.123,27.123,0,0,0-4.383,1.447L18.476,30.06a3.722,3.722,0,0,0-2.093-.641h-.251a3.739,3.739,0,0,0-2.366.865,2.272,2.272,0,0,0-.605-.091,3.871,3.871,0,1,0,0,7.742,2.3,2.3,0,0,0,.774-.142v5.562H10.065v3.1H0V48H35.613a9.341,9.341,0,0,0,8.448-5.426c.023,0,.045.007.068.007a3.858,3.858,0,0,0,2.323-6.948v-.794a10.031,10.031,0,0,0-5.757-9.088,6.983,6.983,0,0,0,4.173-5.7Zm.036-1.617V14.079a2.308,2.308,0,0,1,0,4.359Zm-20.129-2.18a2.319,2.319,0,0,1,1.548-2.18v4.359A2.318,2.318,0,0,1,24.774,16.258Zm1.548-5.419v1.627a3.845,3.845,0,0,0-1.229.5l-.187-.838A5.574,5.574,0,0,1,27,6.458l.751-.564.178-.534a5.566,5.566,0,0,1,5.288-3.811h5.686A7.514,7.514,0,0,1,45.534,12.66a3.774,3.774,0,0,0-.631-.2V8.516H43.355a2.325,2.325,0,0,1-2.323,2.323H36.639a6.011,6.011,0,0,1-5.71-4.116l-1.469.49a7.568,7.568,0,0,0,1.411,2.5,6,6,0,0,1-3.491,1.122ZM36.395,26.323c.24,0,.478.015.714.035.192.018.386.043.581.074l.055.008a2.3,2.3,0,0,1-4.236.05,25.868,25.868,0,0,1,2.863-.166ZM20.052,33.879a3.787,3.787,0,0,0,.077-.714,3.706,3.706,0,0,0-.536-1.9l5.181-2.22v3.094Zm-3.669-2.911a2.2,2.2,0,0,1,1.828,3.416l-.819,1.229H15.484v-3.1a2.31,2.31,0,0,0-.386-1.277,2.183,2.183,0,0,1,1.034-.272Zm-3.222,5.419a2.323,2.323,0,0,1,0-4.645.775.775,0,0,1,.774.774v3.1A.775.775,0,0,1,13.161,36.387Zm2.323.774h1.548v6.194H15.484ZM11.613,44.9H20.9v1.548h-9.29Zm10.839,1.548v-3.1H18.581V36.622l.486-.729,9.882-3.64a9.266,9.266,0,0,0,1.54,14.2Zm13.161,0a7.742,7.742,0,1,1,7-11.04,2.31,2.31,0,0,0-.811,1.75v3.1a2.308,2.308,0,0,0,.812,1.75,7.787,7.787,0,0,1-7.006,4.444Zm8.516-5.419a.775.775,0,0,1-.774-.774v-3.1a.775.775,0,0,1,.774-.774,2.323,2.323,0,0,1,0,4.645Zm0-6.194c-.023,0-.045.006-.067.007a9.266,9.266,0,0,0-.913-1.555h1.61a8.636,8.636,0,0,1,.145,1.548v.079a3.812,3.812,0,0,0-.774-.079Zm.189-3.1H41.806V29.419H40.258v1.257a9.212,9.212,0,0,0-9.29,0V29.419H29.419v1.009l-3.1,1.141V28.382a25.577,25.577,0,0,1,5.627-1.668,3.833,3.833,0,0,0,7.292.107,8.476,8.476,0,0,1,5.076,4.921Zm-6.382-6.968H33.29a5.425,5.425,0,0,1-5.419-5.419V12.371a7.529,7.529,0,0,0,4.14-1.568,7.552,7.552,0,0,0,4.628,1.584h4.394a3.831,3.831,0,0,0,2.323-.794v7.762A5.425,5.425,0,0,1,37.935,24.774Z" transform="translate(0)"/>
    <path id="Path_255" data-name="Path 255" d="M41.1,20.323h1.548a2.323,2.323,0,1,0-4.645,0h1.548a.774.774,0,1,1,1.548,0Z" transform="translate(-8.581 -4.065)"/>
    <path id="Path_256" data-name="Path 256" d="M50.323,18A2.325,2.325,0,0,0,48,20.323h1.548a.774.774,0,1,1,1.548,0h1.548A2.325,2.325,0,0,0,50.323,18Z" transform="translate(-10.839 -4.065)"/>
    <path id="Path_257" data-name="Path 257" d="M41,24.774a3.871,3.871,0,0,0,7.742,0V24H41Zm6.061.774a2.323,2.323,0,0,1-4.38,0Z" transform="translate(-9.258 -5.419)"/>
  </g>
</svg>
