<svg xmlns="http://www.w3.org/2000/svg" width="48.304" height="45.188" viewBox="0 0 48.304 45.188">
  <g id="wheel-alignment_3881879" transform="translate(0 -3.425)">
    <g id="Group_139" data-name="Group 139" transform="translate(0.779 4.204)">
      <g id="Group_124" data-name="Group 124" transform="translate(17.14 21.815)">
        <path id="Path_258" data-name="Path 258" d="M43.217,33c-.249,0-.5.008-.74.031A10.764,10.764,0,0,0,35.6,36.116H23v4.675h3.9v4.675H44.043a4.273,4.273,0,0,0,.164-.4l2.166-5.835V36.155A3.152,3.152,0,0,0,43.217,33Z" transform="translate(-23 -33)" fill="#fcd770"/>
      </g>
      <g id="Group_125" data-name="Group 125" transform="translate(24.152 0)">
        <path id="Path_259" data-name="Path 259" d="M47.9,22.163a3.131,3.131,0,0,0,1.465-1.176,3.2,3.2,0,0,0-1.878-4.908l-.686-.171V14.349a3.116,3.116,0,0,0-3.116-3.116H33.558A1.563,1.563,0,0,1,32,9.675,4.682,4.682,0,0,1,36.675,5h7.02A10.893,10.893,0,0,1,53.9,19.717,10.719,10.719,0,0,1,51.968,23a1.7,1.7,0,0,0-.491-.078,3.1,3.1,0,0,0-3.1,2.828,1.667,1.667,0,0,0-.171.078l-2.181.989v-3.9Z" transform="translate(-32 -5)" fill="#b27946"/>
      </g>
      <g id="Group_126" data-name="Group 126" transform="translate(16.361 34.28)">
        <path id="Path_260" data-name="Path 260" d="M26.534,53.714a4.517,4.517,0,0,1,.14,1.122v3.514H22V53.675A4.666,4.666,0,0,1,26.675,49H43.822a7.794,7.794,0,0,1-7.144,4.675h-10Z" transform="translate(-22 -49)" fill="#d3a06c"/>
      </g>
      <g id="Group_127" data-name="Group 127" transform="translate(20.895 28.047)">
        <path id="Path_261" data-name="Path 261" d="M52.112,41l-2.961,8.71a10.13,10.13,0,0,1-9.591,6.872H27.96V53.068a4.517,4.517,0,0,0-.14-1.122l.14-.039h10a7.794,7.794,0,0,0,7.144-4.675,4.272,4.272,0,0,0,.164-.4L47.438,41Z" transform="translate(-27.82 -41)" fill="#ccd1d9"/>
      </g>
      <g id="Group_128" data-name="Group 128" transform="translate(40.513 17.919)">
        <path id="Path_262" data-name="Path 262" d="M57.675,29.558v8.57H53V31.116c0-.093.008-.195.016-.288A3.1,3.1,0,0,1,56.116,28a1.7,1.7,0,0,1,.491.078,1.549,1.549,0,0,1,.608.382A1.523,1.523,0,0,1,57.675,29.558Z" transform="translate(-53 -28)" fill="#aab2bd"/>
      </g>
      <g id="Group_129" data-name="Group 129" transform="translate(4.675 40.513)">
        <path id="Path_263" data-name="Path 263" d="M18.686,57v3.116H7V57H18.686Z" transform="translate(-7 -57)" fill="#969faa"/>
      </g>
      <g id="Group_130" data-name="Group 130" transform="translate(7.012 37.396)">
        <path id="Path_264" data-name="Path 264" d="M19.349,54.558v1.558H10L10.779,53h8.835A4.708,4.708,0,0,0,19.349,54.558Z" transform="translate(-10 -53)" fill="#aab2bd"/>
      </g>
      <g id="Group_131" data-name="Group 131" transform="translate(10.128 31.413)">
        <path id="Path_265" data-name="Path 265" d="M18.6,47.478a2.449,2.449,0,0,0,1.122.639L17.451,51.3H14a1.514,1.514,0,0,1,.164-.693l3.779-5.29a2.244,2.244,0,0,0-.047.46A2.4,2.4,0,0,0,18.6,47.478Z" transform="translate(-14 -45.32)" fill="#ccd1d9"/>
      </g>
      <g id="Group_132" data-name="Group 132" transform="translate(4.675 24.152)">
        <path id="Path_266" data-name="Path 266" d="M7,36h4.675v3.116H7Z" transform="translate(-7 -36)" fill="#ccd1d9"/>
      </g>
      <g id="Group_133" data-name="Group 133" transform="translate(0 17.14)">
        <path id="Path_267" data-name="Path 267" d="M5.675,50.373v3.116H1V31.675A4.678,4.678,0,0,1,5.675,27V50.373Z" transform="translate(-1 -27)" fill="#aab2bd"/>
      </g>
      <g id="Group_134" data-name="Group 134" transform="translate(9.349 20.256)">
        <path id="Path_268" data-name="Path 268" d="M16.116,35.675v4.675a1.558,1.558,0,1,1-3.116,0V32.558A1.563,1.563,0,0,1,14.558,31a1.57,1.57,0,0,1,1.558,1.558Z" transform="translate(-13 -31)" fill="#aab2bd"/>
      </g>
      <g id="Group_135" data-name="Group 135" transform="translate(14.024 28.047)">
        <path id="Path_269" data-name="Path 269" d="M25.856,42.254l.156.3v4.675h-4.6a2.384,2.384,0,0,1-.577-.07,2.449,2.449,0,0,1-1.122-.639,2.4,2.4,0,0,1-.709-1.7,2.265,2.265,0,0,1,2.267-2.267h.07l.779-.779.117-.117a2.26,2.26,0,0,1,3.623.592Z" transform="translate(-19 -41)" fill="#f0d0b4"/>
      </g>
      <g id="Group_136" data-name="Group 136" transform="translate(12.465 23.373)">
        <path id="Path_270" data-name="Path 270" d="M21.675,36.558v3.9l-.779.779H17V36.558l.9-.9a2.26,2.26,0,0,1,3.623.592Z" transform="translate(-17 -35)" fill="#f0d0b4"/>
      </g>
      <g id="Group_137" data-name="Group 137" transform="translate(24.931 6.233)">
        <path id="Path_271" data-name="Path 271" d="M47.709,17.846l-.686-.171V16.116A3.116,3.116,0,0,0,43.907,13H37.675a2.334,2.334,0,0,0-2.337,2.337V17.16a3.119,3.119,0,0,1-.912,2.2L33,20.791l2.337,1.558.023,3.155a3.5,3.5,0,0,0,3.475,3.077h5.851v.031c.242-.023.491-.031.74-.031a3.152,3.152,0,0,1,3.155,3.155V27.8c0-.093.008-.195.016-.288a1.668,1.668,0,0,0-.171.078l-2.181.989v-3.9l1.878-.756a3.131,3.131,0,0,0,1.465-1.176,3.2,3.2,0,0,0-1.878-4.908Z" transform="translate(-33 -13)" fill="#f0d0b4"/>
      </g>
      <g id="Group_138" data-name="Group 138" transform="translate(27.268 15.582)">
        <path id="Path_272" data-name="Path 272" d="M39.763,27.2a3.136,3.136,0,0,1-2.2.912H36.265l-.242.039A3.808,3.808,0,0,1,36,27.735V25h4.675A3.136,3.136,0,0,1,39.763,27.2Z" transform="translate(-36 -25)" fill="#ff826e"/>
      </g>
    </g>
    <g id="Group_140" data-name="Group 140" transform="translate(0 3.425)">
      <path id="Path_273" data-name="Path 273" d="M46.036,22.584A11.672,11.672,0,0,0,36.624,4H29.605a5.46,5.46,0,0,0-5.454,5.454,2.34,2.34,0,0,0,2.337,2.337H27.7a3.084,3.084,0,0,0-.433,1.558v1.826a2.353,2.353,0,0,1-.684,1.652l-2.1,2.1,2.781,1.854v2.316a4.283,4.283,0,0,0,4.278,4.278H32.3A11.5,11.5,0,0,0,30.2,28.931H18.4a3.038,3.038,0,0,0-4.374-1.024V26.594a2.337,2.337,0,1,0-4.675,0v1.558H6.233V21.14H5.454A5.46,5.46,0,0,0,0,26.594V49.188H33.417a10.9,10.9,0,0,0,10.328-7.4l3-8.834v-8.7a2.329,2.329,0,0,0-.709-1.672Zm-3.966,9.463V25.815a2.34,2.34,0,0,1,2.337-2.337.78.78,0,0,1,.779.779v7.791ZM21,41.033l-.189-.189-1.1,1.1.189.188a3.872,3.872,0,0,1,1.141,2.755v2.738H17.919v-3.9a3.9,3.9,0,0,1,3.9-3.895h15.81a7.031,7.031,0,0,1-5.8,3.117H22.236A5.446,5.446,0,0,0,21,41.033Zm-9.309-4.311a2.334,2.334,0,0,0,2.194-1.558h.543a3,3,0,0,0-.273.665l-3.712,5.2-.063.1a2.408,2.408,0,0,0-.1.266H7.962l-.779,3.116h-.95V32.826H9.349v1.558A2.34,2.34,0,0,0,11.686,36.722Zm26.449-9.349a2.4,2.4,0,0,1,1.522,4.244l-4.746,3.955a11.708,11.708,0,0,1-7.482,2.709H22.594V35.164H26.64a8.527,8.527,0,0,0,6.692-3.216l2.946-3.683a2.368,2.368,0,0,1,1.857-.892ZM16.895,41.4H15.871L17,39.816c.072.005.141.022.214.022h.792A5.482,5.482,0,0,0,16.895,41.4Zm-2.482-3.254A3.212,3.212,0,0,0,15.451,39.3l-1.5,2.093H12.088ZM26.64,33.605H22.292a2.99,2.99,0,0,0-3.594-1.4V30.489H28.8a11.651,11.651,0,0,0-1.637,3.088C26.988,33.589,26.816,33.605,26.64,33.605Zm-9.178,1.558,1.123-1.123a1.485,1.485,0,0,1,2.379.386l.071.142V38.28H17.213a1.633,1.633,0,0,1-1.631-1.631,1.5,1.5,0,0,1,1.558-1.485ZM9.178,42.955h7.246a5.453,5.453,0,0,0-.062.778v.78H8.788ZM38.433,38.28h-4.8a13.189,13.189,0,0,0,2.273-1.511l4.472-3.727ZM25.71,9.454a3.9,3.9,0,0,1,3.9-3.9h7.019a10.109,10.109,0,0,1,7.944,16.376c-.054,0-.105-.016-.16-.016a3.9,3.9,0,0,0-3.8,3.067l-.873.4V23.226l1.39-.555A3.986,3.986,0,0,0,40.61,15.1l-.1-.024v-.95a3.9,3.9,0,0,0-3.9-3.9H26.489a.78.78,0,0,1-.779-.779Zm6.1,11.686a2.342,2.342,0,0,1-2.2,1.558h-.779V21.14Zm-.263,4.675A2.717,2.717,0,0,1,29.1,24.256h.509a3.9,3.9,0,0,0,3.9-3.9v-.779H28.282l-1.349-.9.753-.753a3.866,3.866,0,0,0,1.141-2.754V13.349a1.56,1.56,0,0,1,1.558-1.558h6.233a2.34,2.34,0,0,1,2.337,2.337v2.166l1.278.319a2.428,2.428,0,0,1,.313,4.609l-2.37.948v3.648c-.014,0-.026,0-.041,0-.249,0-.493.014-.739.03v-.03Zm2.89,2.259-2.321,2.9A6.989,6.989,0,0,1,28.993,33.2,10,10,0,0,1,34.436,28.073ZM14.69,29.366a1.485,1.485,0,0,1,2.379.386l.072.142v3.389l-.323.323H14.024V30.033Zm-3.782-2.773a.779.779,0,1,1,1.558,0v7.791a.779.779,0,1,1-1.558,0ZM9.349,29.71v1.558H6.233V29.71ZM4.675,47.629H1.558V26.594a3.9,3.9,0,0,1,3.116-3.817Zm1.558-1.558H16.361v1.558H6.233Zm36.036-4.783a9.346,9.346,0,0,1-8.852,6.342H22.594V44.891c0-.127-.01-.252-.019-.377H31.82a8.607,8.607,0,0,0,8.033-5.584l1.98-5.325h3.045Z" transform="translate(0 -4)"/>
      <path id="Path_274" data-name="Path 274" d="M39.445,16.464l1.365.91-1.365.91.865,1.3,3.31-2.206-3.31-2.206Z" transform="translate(-8.714 -6.467)"/>
    </g>
  </g>
</svg>
