<svg xmlns="http://www.w3.org/2000/svg" xmlns:xlink="http://www.w3.org/1999/xlink" width="53.329" height="53.329" viewBox="0 0 53.329 53.329">
  <defs>
    <clipPath id="clip-path">
      <path id="path12188" d="M0-682.665H53.329v53.329H0Z" transform="translate(0 682.665)"/>
    </clipPath>
    <linearGradient id="linear-gradient" x1="1.066" y1="-0.039" x2="1.068" y2="-0.039" gradientUnits="objectBoundingBox">
      <stop offset="0" stop-color="#ffdbed"/>
      <stop offset="0.049" stop-color="#ffdbed"/>
      <stop offset="0.971" stop-color="#d2deff"/>
      <stop offset="0.999" stop-color="#d2deff"/>
      <stop offset="1" stop-color="#d2deff"/>
    </linearGradient>
    <clipPath id="clip-path-3">
      <path id="path12256" d="M125.959-599.486h33.65v45.613h-33.65Z" transform="translate(-125.959 599.486)"/>
    </clipPath>
  </defs>
  <g id="g12182" transform="translate(0 682.665)">
    <g id="g12184" transform="translate(0 -682.665)">
      <g id="g12186" clip-path="url(#clip-path)">
        <g id="g12192" transform="translate(-54.159 55.412)">
          <g id="g12194" transform="translate(0 0)">
            <g id="g12200">
              <g id="g12202">
                <path id="path12216" d="M-664.688,27.174c-9.827,2.89-7.856,9.748-8.956,17.346-1.372,9.484-7.3,4.621-14.113,9.743-11.775,8.854-3.222,28.4,11.4,25.429,7.765-1.576,9.352-7.3,12.519-13.418,4.1-7.913,10.891-5.756,16.985-10.922,12.359-10.477-3.9-32.278-17.837-28.179" transform="translate(693.286 -26.667)" fill="url(#linear-gradient)"/>
              </g>
            </g>
          </g>
        </g>
      </g>
    </g>
    <g id="g12244" transform="translate(0 -682.665)">
      <g id="g12246" clip-path="url(#clip-path)">
        <g id="g12252" transform="translate(9.84 6.498)">
          <g id="g12266">
            <g id="g12264" opacity="0.1" clip-path="url(#clip-path-3)">
              <g id="g12262" transform="translate(0 0)">
                <path id="path12260" d="M-393.13-156.111a24.374,24.374,0,0,0-2.893-2.292v-7.812a3.125,3.125,0,0,0-3.125-3.125H-420.09a3.125,3.125,0,0,0-3.125,3.125v7.812a24.358,24.358,0,0,0-2.893,2.292,1.043,1.043,0,0,0-.106,1.421l2.512,3.115a1.032,1.032,0,0,0,.486.334v24.389a3.125,3.125,0,0,0,3.125,3.125h20.942a3.125,3.125,0,0,0,3.125-3.125V-151.24a1.03,1.03,0,0,0,.486-.334l2.512-3.115a1.044,1.044,0,0,0-.106-1.421" transform="translate(426.444 169.34)" fill="#2626bc"/>
              </g>
            </g>
          </g>
        </g>
        <g id="g12268" transform="translate(13.069 3.998)">
          <path id="path12270" d="M-320.889-36.875V2.488a3.125,3.125,0,0,1-3.125,3.125h-20.942a3.125,3.125,0,0,1-3.125-3.125V-36.875A3.125,3.125,0,0,1-344.956-40h20.942a3.125,3.125,0,0,1,3.125,3.125" transform="translate(348.08 40)" fill="#fff"/>
        </g>
        <g id="g12272" transform="translate(13.069 32.033)">
          <path id="path12274" d="M0,0V14.453a3.125,3.125,0,0,0,3.125,3.125H24.067a3.125,3.125,0,0,0,3.125-3.125V0Z" fill="#b7c5ff"/>
        </g>
        <path id="path12276" d="M194.483-272.6H167.292v3.828h27.192Z" transform="translate(-154.223 304.638)" fill="#d2deff"/>
        <g id="g12278" transform="translate(20.129 3.998)">
          <path id="path12280" d="M-145.464-28.2l.745-2.389H-157.79l.745,2.389a1.042,1.042,0,0,0,.994.731h9.592a1.042,1.042,0,0,0,.994-.731" transform="translate(157.79 30.585)" fill="#6583fe"/>
        </g>
        <g id="g12282" transform="translate(12.548 21.928)">
          <path id="path12284" d="M17.921,21.538H-3.021a3.65,3.65,0,0,1-3.646-3.646V-6.146a.521.521,0,0,1,.521-.521.521.521,0,0,1,.521.521V17.892a2.607,2.607,0,0,0,2.6,2.6H17.921a2.607,2.607,0,0,0,2.6-2.6V9.51a.521.521,0,0,1,1.042,0v8.382A3.65,3.65,0,0,1,17.921,21.538Z" transform="translate(6.667 6.667)" fill="#2626bc"/>
        </g>
        <g id="g12286" transform="translate(12.548 3.477)">
          <path id="path12288" d="M-354.228-131.426a.521.521,0,0,1-.521-.521v-7.564a3.65,3.65,0,0,1,3.646-3.646h20.942a3.65,3.65,0,0,1,3.646,3.646v7.538a.521.521,0,0,1-.521.521.521.521,0,0,1-.521-.521v-7.538a2.607,2.607,0,0,0-2.6-2.6H-351.1a2.607,2.607,0,0,0-2.6,2.6v7.564A.521.521,0,0,1-354.228-131.426Z" transform="translate(354.748 143.156)" fill="#2626bc"/>
        </g>
        <g id="g12290" transform="translate(39.74 21.847)">
          <path id="path12292" d="M-6.146-149.954a.521.521,0,0,1-.521-.521v-12.23a.521.521,0,0,1,.521-.521.521.521,0,0,1,.521.521v12.23A.521.521,0,0,1-6.146-149.954Z" transform="translate(6.667 163.226)" fill="#2626bc"/>
        </g>
        <g id="g12294" transform="translate(20.596 44.971)">
          <path id="path12296" d="M-137.077-12.292h-11.095a.521.521,0,0,1-.521-.521.521.521,0,0,1,.521-.521h11.095a.521.521,0,0,1,.521.521.521.521,0,0,1-.521.521" transform="translate(148.693 13.333)" fill="#6583fe"/>
        </g>
        <g id="g12298" transform="translate(16.231 5.389)">
          <path id="path12300" d="M-29.5-18.413h-1.979A.521.521,0,0,1-32-18.934v-.519a.521.521,0,0,1,.521-.521H-29.5a.521.521,0,0,1,.521.521v.519a.521.521,0,0,1-.521.521" transform="translate(32 19.973)" fill="#b7c5ff"/>
        </g>
        <g id="g12302" transform="translate(34.468 5.466)">
          <path id="path12304" d="M-6.146-16.594a.521.521,0,0,1-.521-.521v-.365A.521.521,0,0,1-6.146-18a.521.521,0,0,1,.521.521v.365a.521.521,0,0,1-.521.521" transform="translate(6.667 18)" fill="#b7c5ff"/>
        </g>
        <g id="g12306" transform="translate(36.056 5.466)">
          <path id="path12308" d="M-6.146-16.594a.521.521,0,0,1-.521-.521v-.365A.521.521,0,0,1-6.146-18a.521.521,0,0,1,.521.521v.365a.521.521,0,0,1-.521.521" transform="translate(6.667 18)" fill="#b7c5ff"/>
        </g>
        <g id="g12310" transform="translate(9.84 10.783)">
          <path id="path12312" d="M-364.732-129.579l2.512-3.115a1.044,1.044,0,0,0-.106-1.422,24.317,24.317,0,0,0-32.977,0,1.044,1.044,0,0,0-.106,1.422l2.512,3.115a1.043,1.043,0,0,0,1.487.137,19.562,19.562,0,0,1,25.19,0,1.043,1.043,0,0,0,1.487-.137" transform="translate(395.639 140.559)" fill="#ff7eb8"/>
        </g>
        <g id="g12314" transform="translate(20.032 27.703)">
          <path id="path12316" d="M-2.718-42.294,2.873-35.36a1.041,1.041,0,0,0,1.622,0l5.591-6.933A1.044,1.044,0,0,0,9.9-43.779a10.266,10.266,0,0,0-12.44,0,1.044,1.044,0,0,0-.182,1.485" transform="translate(2.948 45.878)" fill="#ff7eb8"/>
        </g>
        <g id="g12318" transform="translate(14.967 19.389)">
          <path id="path12320" d="M-2.735-66.307l2.446,3.034a1.04,1.04,0,0,0,1.449.168,12.356,12.356,0,0,1,15.14,0,1.04,1.04,0,0,0,1.449-.168L20.2-66.307a1.039,1.039,0,0,0-.127-1.44,17.473,17.473,0,0,0-22.678,0,1.039,1.039,0,0,0-.127,1.44" transform="translate(2.967 71.926)" fill="#ff7eb8"/>
        </g>
        <g id="g12322" transform="translate(9.321 10.252)">
          <path id="path12324" d="M-69.223-19.289a1.559,1.559,0,0,1-1.012-.372,18.94,18.94,0,0,0-24.517,0,1.56,1.56,0,0,1-1.164.365,1.547,1.547,0,0,1-1.065-.573l-2.512-3.115a1.569,1.569,0,0,1,.158-2.131,24.7,24.7,0,0,1,7.093-4.594.521.521,0,0,1,.683.275.521.521,0,0,1-.275.683,23.66,23.66,0,0,0-6.795,4.4.524.524,0,0,0-.054.712l2.512,3.115a.513.513,0,0,0,.353.19.526.526,0,0,0,.393-.124,19.979,19.979,0,0,1,25.862,0,.526.526,0,0,0,.393.124.513.513,0,0,0,.353-.19l2.512-3.115a.524.524,0,0,0-.054-.712A23.689,23.689,0,0,0-88.6-29.861a.521.521,0,0,1-.637-.37.521.521,0,0,1,.37-.637,24.726,24.726,0,0,1,23.218,5.753,1.569,1.569,0,0,1,.158,2.131l-2.512,3.115a1.546,1.546,0,0,1-1.065.573Q-69.147-19.289-69.223-19.289Z" transform="translate(99.837 31.708)" fill="#2626bc"/>
        </g>
        <g id="g12326" transform="translate(19.511 27.18)">
          <path id="path12328" d="M-127.223-88.546a.519.519,0,0,1-.327-.115.521.521,0,0,1-.078-.732l2.775-3.44a.515.515,0,0,0,.111-.387.525.525,0,0,0-.2-.357,9.734,9.734,0,0,0-11.807,0,.525.525,0,0,0-.2.357.515.515,0,0,0,.111.388l2.721,3.374a.521.521,0,0,1-.078.732.521.521,0,0,1-.732-.078l-2.721-3.374a1.548,1.548,0,0,1-.335-1.166,1.559,1.559,0,0,1,.606-1.06,10.778,10.778,0,0,1,13.073,0,1.559,1.559,0,0,1,.606,1.06,1.548,1.548,0,0,1-.334,1.165l-2.775,3.44A.52.52,0,0,1-127.223-88.546Z" transform="translate(138.004 96.614)" fill="#2626bc"/>
        </g>
        <g id="g12330" transform="translate(14.443 18.868)">
          <path id="path12332" d="M10.753-68.511a1.546,1.546,0,0,1-.958-.329,11.85,11.85,0,0,0-7.25-2.481,11.85,11.85,0,0,0-7.25,2.481,1.545,1.545,0,0,1-.958.329,1.556,1.556,0,0,1-1.216-.581l-2.446-3.034a1.551,1.551,0,0,1,.194-2.162,17.957,17.957,0,0,1,11.678-4.3,17.957,17.957,0,0,1,11.678,4.3,1.551,1.551,0,0,1,.194,2.162l-2.446,3.034A1.555,1.555,0,0,1,10.753-68.511ZM2.545-72.363a12.9,12.9,0,0,1,7.89,2.7.514.514,0,0,0,.318.11.518.518,0,0,0,.405-.194l2.446-3.034a.521.521,0,0,0-.06-.717,16.915,16.915,0,0,0-11-4.054,16.915,16.915,0,0,0-11,4.054.521.521,0,0,0-.06.718l2.446,3.034a.52.52,0,0,0,.406.194.513.513,0,0,0,.318-.11A12.9,12.9,0,0,1,2.545-72.363Z" transform="translate(9.677 78.593)" fill="#2626bc"/>
        </g>
        <g id="g12334" transform="translate(22.744 32.654)">
          <path id="path12336" d="M-92.523-46.262a3.92,3.92,0,0,1-3.92,3.92,3.92,3.92,0,0,1-3.92-3.92,3.92,3.92,0,0,1,3.92-3.92,3.92,3.92,0,0,1,3.92,3.92" transform="translate(100.364 50.183)" fill="#01eca5"/>
        </g>
        <g id="g12338" transform="translate(22.224 32.134)">
          <path id="path12340" d="M-102.59-56.849a4.446,4.446,0,0,1,4.441,4.441,4.446,4.446,0,0,1-4.441,4.441,4.446,4.446,0,0,1-4.441-4.441A4.446,4.446,0,0,1-102.59-56.849Zm0,7.84a3.4,3.4,0,0,0,3.4-3.4,3.4,3.4,0,0,0-3.4-3.4,3.4,3.4,0,0,0-3.4,3.4A3.4,3.4,0,0,0-102.59-49.009Z" transform="translate(107.03 56.849)" fill="#2626bc"/>
        </g>
        <g id="g12342" transform="translate(6.957 32.682)">
          <path id="path12344" d="M-20.048-6.667a.521.521,0,0,1,.521.521.658.658,0,0,0,.657.657.521.521,0,0,1,.521.521.521.521,0,0,1-.521.521.658.658,0,0,0-.657.657.521.521,0,0,1-.521.521.521.521,0,0,1-.521-.521.658.658,0,0,0-.657-.657.521.521,0,0,1-.521-.521.521.521,0,0,1,.521-.521.658.658,0,0,0,.657-.657A.521.521,0,0,1-20.048-6.667Z" transform="translate(21.747 6.667)" fill="#ff7eb8"/>
        </g>
        <g id="g12346" transform="translate(42.968 38.087)">
          <path id="path12348" d="M-20.049-6.667a.521.521,0,0,1,.521.521.658.658,0,0,0,.657.657.521.521,0,0,1,.521.521.521.521,0,0,1-.521.521.658.658,0,0,0-.657.657.521.521,0,0,1-.521.521.521.521,0,0,1-.521-.521.658.658,0,0,0-.657-.657.521.521,0,0,1-.521-.521.521.521,0,0,1,.521-.521.658.658,0,0,0,.657-.657A.521.521,0,0,1-20.049-6.667Z" transform="translate(21.748 6.667)" fill="#ff7eb8"/>
        </g>
        <g id="g12350" transform="translate(44.147 23.044)">
          <path id="path12352" d="M-20.049-6.667a.521.521,0,0,1,.521.521.658.658,0,0,0,.657.657.521.521,0,0,1,.521.521.521.521,0,0,1-.521.521.658.658,0,0,0-.657.657.521.521,0,0,1-.521.521.521.521,0,0,1-.521-.521.658.658,0,0,0-.657-.657.521.521,0,0,1-.521-.521.521.521,0,0,1,.521-.521.658.658,0,0,0,.657-.657A.521.521,0,0,1-20.049-6.667Z" transform="translate(21.748 6.667)" fill="#6583fe"/>
        </g>
        <g id="g12354" transform="translate(5.779 27.83)">
          <path id="path12356" d="M-20.049-33.43a.521.521,0,0,1-.368-.153L-21.6-34.761a.521.521,0,0,1-.153-.368A.521.521,0,0,1-21.6-35.5l1.178-1.178a.521.521,0,0,1,.736,0L-18.5-35.5a.521.521,0,0,1,0,.736l-1.178,1.178A.521.521,0,0,1-20.049-33.43Zm-.442-1.7.442.442.442-.442-.442-.442Z" transform="translate(21.748 36.828)" fill="#01eca5"/>
        </g>
        <g id="g12358" transform="translate(6.957 9.755)">
          <path id="path12360" d="M-20.048-33.429a.521.521,0,0,1-.368-.153l-1.178-1.178a.521.521,0,0,1-.153-.368.521.521,0,0,1,.153-.368l1.178-1.178a.521.521,0,0,1,.736,0L-18.5-35.5a.521.521,0,0,1,.153.368.521.521,0,0,1-.153.368l-1.178,1.178A.521.521,0,0,1-20.048-33.429Zm-.442-1.7.442.442.442-.442-.442-.441Z" transform="translate(21.747 36.827)" fill="#6583fe"/>
        </g>
      </g>
    </g>
  </g>
</svg>
